<svg width="117" height="102" viewBox="0 0 117 102" fill="none" xmlns="http://www.w3.org/2000/svg">
<path d="M58.5 0.5C90.5991 0.5 116.5 23.1718 116.5 51C116.5 78.8282 90.5991 101.5 58.5 101.5C26.4009 101.5 0.5 78.8282 0.5 51C0.5 23.1718 26.4009 0.5 58.5 0.5ZM60.0527 41.1758L49.7939 42.168L49.4482 42.2021L49.3594 42.5381C47.0814 51.144 45.3942 56.1533 40.9375 60.6836L40.5654 61.0625L40.9658 61.4121L43.2148 63.3691L43.5615 63.6719L43.8916 63.3506C49.2789 58.1053 50.9496 52.0888 52.8252 45.7031L58.752 45.1309L65.3145 50.8477L64.6738 55.877C57.3357 57.5127 50.4487 58.9592 44.4375 63.6455L43.96 64.0186L44.417 64.417L46.666 66.377L46.9697 66.6426L47.293 66.4004C52.5089 62.5054 58.2917 61.0313 68.1787 59.0439L68.5312 58.9727L68.5762 58.6162L69.7158 49.6807L69.75 49.415L69.5488 49.2402L60.4297 41.2959L60.2676 41.1553L60.0527 41.1758ZM57.9756 51.0771C57.109 50.3937 55.939 50.1136 54.8154 50.3008L54.5752 50.3477C53.3794 50.6204 52.3904 51.4102 51.9795 52.4795L51.9053 52.6973C51.5703 53.8122 51.915 54.9771 52.7646 55.7959L52.9414 55.9551L52.9443 55.958C54.4012 57.1617 56.672 57.1374 58.0938 55.8984C59.5076 54.6663 59.582 52.6692 58.2891 51.3574L58.1602 51.2324L58.1572 51.2295L57.9756 51.0771ZM63.2949 36.5186L63.127 36.5557C62.7382 36.6687 62.404 36.9542 62.2734 37.3467L62.2305 37.5215L61.8887 39.6064L61.8438 39.8818L62.0537 40.0645L71.1709 48.0068L71.3418 48.1562L71.5674 48.125L73.9434 47.8027L73.9424 47.8018C74.34 47.7483 74.7123 47.5235 74.9121 47.167L74.9873 47.0068C75.139 46.6023 75.0428 46.1744 74.7754 45.8643L74.6504 45.7393L64.4189 36.8281V36.8271C64.1107 36.5594 63.6911 36.4546 63.2949 36.5186Z" fill="#403E3B" stroke="black"/>
</svg>
